# xmcd CD database file
#
# Track frame offsets:
#	150
#	18962
#	37947
#	70380
#	115810
#	139895
#	168957
#	190167
#	217257
#	251057
#	265875
#
# Disc length: 3781 seconds
#
# Revision: 0
# Processed by: cddbd v1.4PL0 Copyright (c) Steve Scherf et al.
# Submitted via: CDex 1.40Beta8
#
DISCID=a00ec30b
DTITLE=Kan-Tu Blues Band - Blues Crazy
DYEAR=1900
DGENRE=Blues
TTITLE0=Reverend Boogie
TTITLE1=Crossroads
TTITLE2=Pawn Shop
TTITLE3=Loan Me A Dime
TTITLE4=Tigerman
TTITLE5=I ain't Superstitous
TTITLE6=Guess I'm Gonna Have to Wait
TTITLE7=Poor Us Blues
TTITLE8=Mustang Sally
TTITLE9=I Hear You Knockin'
TTITLE10=Down to the River
EXTD=ID3G: 0
EXTT0=
EXTT1=
EXTT2=
EXTT3=
EXTT4=
EXTT5=
EXTT6=
EXTT7=
EXTT8=
EXTT9=
EXTT10=
PLAYORDER=
